<svg width="45" height="19" viewBox="0 0 45 19" fill="none" xmlns="http://www.w3.org/2000/svg">
<path d="M6.83398 0.916016H19.1973C19.7441 0.935547 20.1934 1.14062 20.5449 1.53125C20.916 1.92188 21.1016 2.39063 21.1016 2.9375C21.0039 4.10938 20.3691 4.74414 19.1973 4.8418H7.83008C7.08789 4.88086 6.47266 5.16406 5.98438 5.69141C5.49609 6.21875 5.13477 6.82422 4.90039 7.50781C4.68555 8.17188 4.57812 8.85547 4.57812 9.55859C4.57812 10.2617 4.68555 10.9551 4.90039 11.6387C5.13477 12.3027 5.49609 12.8984 5.98438 13.4258C6.47266 13.9531 7.08789 14.2363 7.83008 14.2754H16.7363C17.0879 14.2559 17.2734 14.0605 17.293 13.6895V11.9902C17.2734 11.5996 17.0879 11.4043 16.7363 11.4043H9.23633C8.68945 11.4043 8.2207 11.2188 7.83008 10.8477C7.45898 10.457 7.27344 9.98828 7.27344 9.44141C7.27344 8.89453 7.45898 8.42578 7.83008 8.03516C8.2207 7.66406 8.68945 7.47852 9.23633 7.47852H19.2559C19.8027 7.47852 20.2715 7.66406 20.6621 8.03516C21.0137 8.40625 21.1992 8.85547 21.2188 9.38281V9.44141V16.2969C21.1992 16.8242 21.0137 17.2637 20.6621 17.6152C20.291 17.9863 19.8418 18.1816 19.3145 18.2012H6.83398C5.4668 18.123 4.33398 17.6055 3.43555 16.6484C2.55664 15.6719 1.92188 14.5684 1.53125 13.3379C1.16016 12.1074 0.974609 10.8477 0.974609 9.55859C0.974609 8.26953 1.16992 7.00977 1.56055 5.7793C1.95117 4.54883 2.58594 3.45508 3.46484 2.49805C4.34375 1.52148 5.4668 0.994141 6.83398 0.916016ZM30.418 0.916016H42.7812C43.3281 0.935547 43.7773 1.14062 44.1289 1.53125C44.5 1.92188 44.6855 2.39063 44.6855 2.9375C44.5879 4.10938 43.9531 4.74414 42.7812 4.8418H31.4141C30.6719 4.88086 30.0566 5.16406 29.5684 5.69141C29.0801 6.21875 28.7188 6.82422 28.4844 7.50781C28.2695 8.17188 28.1621 8.85547 28.1621 9.55859C28.1621 10.2617 28.2695 10.9551 28.4844 11.6387C28.7188 12.3027 29.0801 12.8984 29.5684 13.4258C30.0566 13.9531 30.6719 14.2363 31.4141 14.2754H40.3203C40.6719 14.2559 40.8574 14.0605 40.877 13.6895V11.9902C40.8574 11.5996 40.6719 11.4043 40.3203 11.4043H32.8203C32.2734 11.4043 31.8047 11.2188 31.4141 10.8477C31.043 10.457 30.8574 9.98828 30.8574 9.44141C30.8574 8.89453 31.043 8.42578 31.4141 8.03516C31.8047 7.66406 32.2734 7.47852 32.8203 7.47852H42.8398C43.3867 7.47852 43.8555 7.66406 44.2461 8.03516C44.5977 8.40625 44.7832 8.85547 44.8027 9.38281V9.44141V16.2969C44.7832 16.8242 44.5977 17.2637 44.2461 17.6152C43.875 17.9863 43.4258 18.1816 42.8984 18.2012H30.418C29.0508 18.123 27.918 17.6055 27.0195 16.6484C26.1406 15.6719 25.5059 14.5684 25.1152 13.3379C24.7441 12.1074 24.5586 10.8477 24.5586 9.55859C24.5586 8.26953 24.7539 7.00977 25.1445 5.7793C25.5352 4.54883 26.1699 3.45508 27.0488 2.49805C27.9277 1.52148 29.0508 0.994141 30.418 0.916016Z" fill="white"/>
</svg>
