<svg width="31" height="31" viewBox="0 0 31 31" fill="none" xmlns="http://www.w3.org/2000/svg">
<circle cx="15.4219" cy="15.2598" r="14.5" fill="#454444" stroke="white"/>
<path d="M13.956 20.1291V19.9075C13.9616 18.8791 14.0582 18.0609 14.2457 17.4529C14.4389 16.845 14.7116 16.3564 15.0639 15.987C15.4162 15.612 15.8452 15.2683 16.3509 14.9558C16.6974 14.7399 17.0071 14.5041 17.2798 14.2484C17.5582 13.987 17.777 13.6973 17.9361 13.3791C18.0952 13.0552 18.1747 12.6944 18.1747 12.2967C18.1747 11.8478 18.0696 11.4586 17.8594 11.1291C17.6491 10.7995 17.3651 10.5439 17.0071 10.362C16.6548 10.1802 16.2599 10.0893 15.8224 10.0893C15.419 10.0893 15.0355 10.1774 14.6719 10.3535C14.3139 10.524 14.0156 10.7853 13.777 11.1376C13.544 11.4842 13.4134 11.9245 13.3849 12.4586H10.3509C10.3793 11.3791 10.6406 10.4757 11.1349 9.7484C11.6349 9.02113 12.294 8.47567 13.1122 8.11204C13.9361 7.7484 14.8452 7.56658 15.8395 7.56658C16.9247 7.56658 17.8793 7.75692 18.7031 8.13761C19.5327 8.51829 20.1776 9.0609 20.6378 9.76545C21.1037 10.4643 21.3366 11.2939 21.3366 12.2541C21.3366 12.9018 21.2315 13.4814 21.0213 13.9927C20.8168 14.5041 20.5241 14.9586 20.1435 15.3564C19.7628 15.7541 19.3111 16.1092 18.7884 16.4217C18.3281 16.7058 17.9503 17.0012 17.6548 17.3081C17.3651 17.6149 17.1491 17.9757 17.0071 18.3904C16.8707 18.7995 16.7997 19.3052 16.794 19.9075V20.1291H13.956ZM15.4389 25.4473C14.9276 25.4473 14.4872 25.2654 14.1179 24.9018C13.7486 24.5382 13.5639 24.095 13.5639 23.5723C13.5639 23.0609 13.7486 22.6234 14.1179 22.2598C14.4872 21.8961 14.9276 21.7143 15.4389 21.7143C15.9446 21.7143 16.3821 21.8961 16.7514 22.2598C17.1264 22.6234 17.3139 23.0609 17.3139 23.5723C17.3139 23.9189 17.2259 24.2342 17.0497 24.5183C16.8793 24.8024 16.652 25.0297 16.3679 25.2001C16.0895 25.3649 15.7798 25.4473 15.4389 25.4473Z" fill="white"/>
</svg>
