<svg width="33" height="27" viewBox="0 0 33 27" fill="none" xmlns="http://www.w3.org/2000/svg">
<path d="M32.9158 3.33872C31.7388 3.86172 30.4748 4.21472 29.1458 4.37172C30.5008 3.55972 31.5418 2.27372 32.0328 0.741719C30.7638 1.49272 29.3598 2.04072 27.8648 2.33372C26.6668 1.05872 24.9608 0.261719 23.0718 0.261719C19.4468 0.261719 16.5098 3.19972 16.5098 6.82472C16.5098 7.33872 16.5668 7.84072 16.6788 8.32072C11.2238 8.04672 6.38783 5.43372 3.14983 1.46272C2.58583 2.43272 2.26183 3.55972 2.26183 4.76272C2.26183 7.04072 3.42083 9.04872 5.18083 10.2267C4.10583 10.1917 3.09383 9.89772 2.20883 9.40572C2.20783 9.43272 2.20783 9.46172 2.20783 9.48772C2.20783 12.6687 4.46983 15.3217 7.47283 15.9247C6.92283 16.0737 6.34283 16.1547 5.74383 16.1547C5.31983 16.1547 4.90983 16.1137 4.50983 16.0377C5.34383 18.6437 7.76883 20.5417 10.6398 20.5957C8.39483 22.3557 5.56483 23.4067 2.48983 23.4067C1.95983 23.4067 1.43683 23.3757 0.923828 23.3147C3.82783 25.1747 7.27783 26.2617 10.9848 26.2617C23.0568 26.2617 29.6598 16.2607 29.6598 7.58672C29.6598 7.30272 29.6518 7.01872 29.6398 6.73672C30.9228 5.81172 32.0348 4.65672 32.9158 3.33872Z" fill="#55ACEE"/>
</svg>
